<svg width="3577" height="2818" viewBox="0 0 3577 2818" fill="none" xmlns="http://www.w3.org/2000/svg">
<g filter="url(#filter0_d_2077_13)">
<path d="M3459.06 2762C3459.06 2673.74 3496.37 2592.1 3425.83 2466.71C3355.29 2341.32 3276.46 2349.18 3191.7 2286.77C3106.94 2224.36 3006.31 2174.85 2895.56 2141.08C2784.81 2107.3 2666.11 2089.92 2546.23 2089.92C2426.36 2089.92 2307.66 2107.3 2196.91 2141.08C2086.16 2174.85 1985.53 2224.36 1900.77 2286.77C1816.01 2349.18 1703.63 2320.01 1602.69 2451.66C1501.75 2583.32 1517.42 2673.74 1517.42 2762L2546.23 2762H3459.06Z" fill="#4F297E"/>
</g>
<g filter="url(#filter1_d_2077_13)">
<path fill-rule="evenodd" clip-rule="evenodd" d="M3220.82 2041.65C3220.82 2189.76 3175.06 2761.37 3175.06 2761.37H2744.97C2744.97 2761.37 2813.31 2494.92 2744.97 2336.93C2742.19 2330.51 2739.37 2323.92 2736.48 2317.2C2668.41 2158.66 2567.08 1922.64 2260.35 1836.64C1940.61 1746.98 1729.75 1825.35 1729.75 1825.35C1875.83 1607.92 2445.95 1272.38 2600.78 1251.07C3115.5 1180.23 3220.82 1739.37 3220.82 2041.65ZM1961.3 1711.87C1961.3 1711.87 2281.9 1700.85 2452.19 1794.63C2658.65 1908.33 2820.21 2272.99 2820.21 2272.99C2820.21 2272.99 2704.24 1863.08 2491.69 1746.98C2309.51 1647.47 1961.3 1711.87 1961.3 1711.87Z" fill="url(#paint0_linear_2077_13)"/>
</g>
<path d="M2021.49 2761.37H2491.69H2744.97C2744.97 2761.37 2813.31 2494.92 2744.97 2336.93C2742.19 2330.51 2739.37 2323.92 2736.48 2317.2C2668.41 2158.66 2567.08 1922.64 2260.35 1836.64C1940.61 1746.98 1729.75 1825.35 1729.75 1825.35C1707.85 1857.96 1695.48 1887.91 1695.48 1913.75C1731.84 2331.29 2021.49 2761.37 2021.49 2761.37Z" fill="url(#paint1_linear_2077_13)"/>
<path fill-rule="evenodd" clip-rule="evenodd" d="M1961.3 1711.87C1961.3 1711.87 2281.9 1700.85 2452.19 1794.63C2658.65 1908.33 2820.21 2272.99 2820.21 2272.99C2820.21 2272.99 2704.24 1863.08 2491.69 1746.98C2309.51 1647.47 1961.3 1711.87 1961.3 1711.87Z" fill="url(#paint2_linear_2077_13)"/>
<path fill-rule="evenodd" clip-rule="evenodd" d="M2358.15 2544.44C2481.05 2544.44 2632.65 2443.03 2737.31 2314.36C2737.31 2314.36 2636.45 2083.6 2500.41 1957.63C2364.37 1831.66 2103.56 1804.66 2103.56 1804.66C2101.91 1818.17 2103.56 1815.85 2103.56 1831.66C2103.56 2053.9 2148.08 2544.44 2358.15 2544.44Z" fill="url(#paint3_linear_2077_13)"/>
<path d="M1800.19 2536.15C1821.39 2616.39 1787.32 2766.87 1691.29 2786.34C1595.26 2805.82 1618.02 2663.4 1588.57 2518.16C1630.61 2352.78 1481.6 2216.78 1553.3 2157.84C1606.43 2140.41 1601.6 2241.97 1637.14 2292.62C1672.67 2343.27 1778.99 2455.91 1800.19 2536.15Z" fill="url(#paint4_linear_2077_13)"/>
<path d="M37.3758 107.849C29.2857 118.296 21.1957 128.743 13.1056 139.189C52.1116 170.968 92.9368 208.252 130.377 243.724C502.15 601.632 810.434 1023 1074.18 1466.09C1292.72 1840.21 1490.77 2236.59 1557.43 2656.5C1564.35 2706.61 1568.93 2761.69 1566.19 2802.46C1601.26 2805.87 1636.33 2809.29 1671.4 2812.7C1674.23 2748.48 1667.12 2697.44 1658.7 2641.38C1577.7 2195.6 1367.36 1802.24 1138.5 1427.08C862.647 984.868 543.175 566.539 159.607 212.266C120.712 176.977 79.4021 140.632 37.3758 107.849Z" fill="url(#paint5_linear_2077_13)"/>
<path d="M1563.69 2336.36C1569.64 2363.45 1536.36 2393.79 1489.35 2404.12C1412.19 2437.84 1402.05 2405.67 1396.09 2378.58C1390.14 2351.48 1420.78 2316.34 1467.79 2306.01C1514.8 2295.68 1557.73 2309.27 1563.69 2336.36Z" fill="url(#paint6_linear_2077_13)"/>
<path d="M1660.08 2401.02C1670.08 2446.55 1616.56 2462.01 1549.57 2476.73C1482.58 2491.46 1430.23 2512.26 1417.5 2454.34C1407.45 2408.59 1461.02 2393.35 1528.01 2378.63C1595 2363.9 1654.12 2373.93 1660.08 2401.02Z" fill="url(#paint7_linear_2077_13)"/>
<path d="M1681.28 2479.67C1686.17 2529.54 1637.76 2540.65 1570.77 2555.38C1503.79 2570.1 1451.43 2590.9 1438.7 2532.98C1428.65 2487.23 1482.23 2471.99 1549.21 2457.27C1616.2 2442.54 1675.33 2452.57 1681.28 2479.67Z" fill="url(#paint8_linear_2077_13)"/>
<path d="M1700.24 2557.02C1688.82 2633.37 1612.85 2594.7 1554.92 2637.38C1557.97 2674.18 1627.4 2754.82 1557.77 2765.47C1488.13 2776.13 1465.36 2679.35 1458.9 2627.61C1453.1 2581.14 1501.18 2549.34 1568.16 2534.62C1635.15 2519.89 1694.28 2529.92 1700.24 2557.02Z" fill="url(#paint9_linear_2077_13)"/>
<defs>
<filter id="filter0_d_2077_13" x="1484.54" y="1994.92" width="2092.38" height="812.08" filterUnits="userSpaceOnUse" color-interpolation-filters="sRGB">
<feFlood flood-opacity="0" result="BackgroundImageFix"/>
<feColorMatrix in="SourceAlpha" type="matrix" values="0 0 0 0 0 0 0 0 0 0 0 0 0 0 0 0 0 0 127 0" result="hardAlpha"/>
<feOffset dx="38" dy="-25"/>
<feGaussianBlur stdDeviation="35"/>
<feComposite in2="hardAlpha" operator="out"/>
<feColorMatrix type="matrix" values="0 0 0 0 0.418269 0 0 0 0 0.418269 0 0 0 0 0.418269 0 0 0 0.6 0"/>
<feBlend mode="normal" in2="BackgroundImageFix" result="effect1_dropShadow_2077_13"/>
<feBlend mode="normal" in="SourceGraphic" in2="effect1_dropShadow_2077_13" result="shape"/>
</filter>
<filter id="filter1_d_2077_13" x="1663.75" y="1140.93" width="1651.07" height="1676.44" filterUnits="userSpaceOnUse" color-interpolation-filters="sRGB">
<feFlood flood-opacity="0" result="BackgroundImageFix"/>
<feColorMatrix in="SourceAlpha" type="matrix" values="0 0 0 0 0 0 0 0 0 0 0 0 0 0 0 0 0 0 127 0" result="hardAlpha"/>
<feOffset dx="14" dy="-24"/>
<feGaussianBlur stdDeviation="40"/>
<feComposite in2="hardAlpha" operator="out"/>
<feColorMatrix type="matrix" values="0 0 0 0 0.418269 0 0 0 0 0.418269 0 0 0 0 0.418269 0 0 0 0.7 0"/>
<feBlend mode="normal" in2="BackgroundImageFix" result="effect1_dropShadow_2077_13"/>
<feBlend mode="normal" in="SourceGraphic" in2="effect1_dropShadow_2077_13" result="shape"/>
</filter>
<linearGradient id="paint0_linear_2077_13" x1="1725.57" y1="1525.67" x2="1747.07" y2="3011.33" gradientUnits="userSpaceOnUse">
<stop stop-color="#513494"/>
<stop offset="0.774625" stop-color="#8422C5"/>
</linearGradient>
<linearGradient id="paint1_linear_2077_13" x1="1800.18" y1="1641.66" x2="1828.79" y2="2960.69" gradientUnits="userSpaceOnUse">
<stop offset="0.375" stop-color="#2E0E47"/>
<stop offset="0.80393" stop-color="#4B1377"/>
</linearGradient>
<linearGradient id="paint2_linear_2077_13" x1="1800.18" y1="1641.66" x2="1828.79" y2="2960.69" gradientUnits="userSpaceOnUse">
<stop offset="0.375" stop-color="#2E0E47"/>
<stop offset="0.80393" stop-color="#4B1377"/>
</linearGradient>
<linearGradient id="paint3_linear_2077_13" x1="2483.49" y1="2545.08" x2="2597.59" y2="1623.48" gradientUnits="userSpaceOnUse">
<stop stop-color="#D2D2D2"/>
<stop offset="0.442605"/>
</linearGradient>
<linearGradient id="paint4_linear_2077_13" x1="1802.49" y1="2328.85" x2="1704.4" y2="2687.17" gradientUnits="userSpaceOnUse">
<stop stop-color="white"/>
<stop offset="1" stop-color="#737373"/>
</linearGradient>
<linearGradient id="paint5_linear_2077_13" x1="87.0001" y1="661" x2="202.103" y2="2734.75" gradientUnits="userSpaceOnUse">
<stop stop-color="#15151A"/>
<stop offset="0.270418" stop-color="#8422C5"/>
<stop offset="0.926947" stop-color="#4B1377"/>
</linearGradient>
<linearGradient id="paint6_linear_2077_13" x1="1468.55" y1="2305.84" x2="1491.03" y2="2408.16" gradientUnits="userSpaceOnUse">
<stop stop-color="white"/>
<stop offset="1" stop-color="#C5C5C5"/>
</linearGradient>
<linearGradient id="paint7_linear_2077_13" x1="1528.01" y1="2378.63" x2="1549.68" y2="2477.22" gradientUnits="userSpaceOnUse">
<stop stop-color="white"/>
<stop offset="1" stop-color="#C5C5C5"/>
</linearGradient>
<linearGradient id="paint8_linear_2077_13" x1="1549.21" y1="2457.27" x2="1570.88" y2="2555.86" gradientUnits="userSpaceOnUse">
<stop stop-color="white"/>
<stop offset="1" stop-color="#C5C5C5"/>
</linearGradient>
<linearGradient id="paint9_linear_2077_13" x1="1566.15" y1="2535.06" x2="1614.11" y2="2753.26" gradientUnits="userSpaceOnUse">
<stop stop-color="white"/>
<stop offset="1" stop-color="#C5C5C5"/>
</linearGradient>
</defs>
</svg>
